<svg width="1920" height="1005" viewBox="0 0 1920 1005" fill="none" xmlns="http://www.w3.org/2000/svg">
<path d="M0 0H1920V474H0V0Z" fill="#2F3E46"/>
<path d="M84.5531 948.956C122.698 948.956 154.606 920.043 162.912 881.209C181.718 927.271 223.782 959.439 272.928 959.439C311.23 959.439 345.364 939.882 367.367 909.372C387.584 950.834 427.578 978.996 473.747 978.996C516.343 978.996 553.736 954.839 575.113 918.384C582 927.714 590.964 935.318 601.3 940.597C611.635 945.875 623.057 948.683 634.666 948.8C664.599 948.8 690.52 930.306 703.433 903.239C737.912 955.09 793.641 988.853 856.798 988.853C916.633 988.853 969.917 958.531 1004.58 911.218C1021.32 946.828 1055.3 971.205 1094.51 971.205C1134.88 971.205 1169.73 945.358 1185.87 908.058C1193.05 917.562 1202.31 925.296 1212.95 930.661C1223.59 936.027 1235.33 938.882 1247.25 939.005C1280.06 939.005 1308.27 917.602 1320.81 886.904C1336.04 940.257 1381.68 978.996 1435.65 978.996C1482.67 978.996 1523.6 949.394 1543.29 906.337C1547.81 914.378 1554.37 921.094 1562.3 925.816C1570.24 930.538 1579.28 933.1 1588.52 933.248C1596.31 933.17 1603.98 931.337 1610.97 927.886C1617.95 924.435 1624.07 919.454 1628.85 913.315C1653.93 967.669 1705.62 1005 1765.29 1005C1849.61 1005 1918 930.463 1918 838.559V491H4L4 861.151C4 909.654 40.0765 948.956 84.5531 948.956Z" fill="#52796F"/>
<path d="M84.5531 919.847C122.698 919.847 154.606 890.877 162.912 851.969C181.718 898.12 223.782 930.35 272.928 930.35C311.23 930.35 345.364 910.755 367.367 880.186C387.584 921.728 427.578 949.946 473.747 949.946C516.343 949.946 553.736 925.742 575.113 889.216C582 898.564 590.964 906.183 601.3 911.472C611.635 916.76 623.057 919.574 634.666 919.69C664.599 919.69 690.52 901.161 703.433 874.041C737.912 925.993 793.641 959.822 856.798 959.822C916.633 959.822 969.917 929.441 1004.58 882.036C1021.32 917.715 1055.3 942.139 1094.51 942.139C1134.88 942.139 1169.73 916.242 1185.87 878.869C1193.05 888.392 1202.31 896.141 1212.95 901.517C1223.59 906.893 1235.33 909.753 1247.25 909.877C1280.06 909.877 1308.27 888.432 1320.81 857.675C1336.04 911.131 1381.68 949.946 1435.65 949.946C1482.67 949.946 1523.6 920.286 1543.29 877.145C1547.81 885.202 1554.37 891.931 1562.3 896.662C1570.24 901.393 1579.28 903.961 1588.52 904.108C1596.31 904.03 1603.98 902.194 1610.97 898.736C1617.95 895.278 1624.07 890.287 1628.85 884.136C1653.93 938.596 1705.62 976 1765.29 976C1849.61 976 1918 901.318 1918 809.235V461H4L4 831.871C4 880.468 40.0765 919.847 84.5531 919.847Z" fill="#354F52"/>
<path d="M80.8056 890.153C119.07 890.153 151.078 861.1 159.41 822.081C178.276 868.363 220.471 900.686 269.772 900.686C308.194 900.686 342.434 881.034 364.506 850.379C384.786 892.039 424.906 920.337 471.22 920.337C513.949 920.337 551.46 896.064 572.903 859.434C579.812 868.809 588.805 876.449 599.172 881.753C609.539 887.057 620.998 889.878 632.643 889.995C662.67 889.995 688.672 871.413 701.626 844.216C736.212 896.315 792.116 930.241 855.471 930.241C915.494 930.241 968.945 899.774 1003.72 852.234C1020.51 888.014 1054.59 912.508 1093.93 912.508C1134.42 912.508 1169.39 886.537 1185.58 849.058C1192.78 858.608 1202.07 866.378 1212.74 871.77C1223.42 877.161 1235.19 880.03 1247.14 880.154C1280.06 880.154 1308.36 858.648 1320.94 827.803C1336.22 881.412 1382 920.337 1436.14 920.337C1483.3 920.337 1524.37 890.593 1544.11 847.329C1548.65 855.409 1555.23 862.157 1563.19 866.902C1571.15 871.646 1580.22 874.221 1589.48 874.369C1597.3 874.291 1605 872.449 1612.01 868.981C1619.01 865.514 1625.15 860.509 1629.95 854.34C1655.1 908.955 1706.95 946.465 1766.81 946.465C1851.39 946.465 1920 871.57 1920 779.226V430.001H0L0 801.927C0 850.662 36.1896 890.153 80.8056 890.153Z" fill="#2F3E46"/>
<mask id="mask0_117_362" style="mask-type:alpha" maskUnits="userSpaceOnUse" x="4" y="430" width="1914" height="516">
<path d="M84.5531 889.522C122.698 889.522 154.606 860.56 162.912 821.663C181.718 867.8 223.782 900.022 272.928 900.022C311.23 900.022 345.364 880.432 367.367 849.872C387.584 891.402 427.578 919.611 473.747 919.611C516.343 919.611 553.736 895.414 575.113 858.899C582 868.244 590.964 875.861 601.3 881.148C611.635 886.436 623.057 889.248 634.666 889.365C664.599 889.365 690.52 870.841 703.433 843.729C737.912 895.665 793.641 929.485 856.798 929.485C916.633 929.485 969.917 899.113 1004.58 851.721C1021.32 887.39 1055.3 911.807 1094.51 911.807C1134.88 911.807 1169.73 885.917 1185.87 848.555C1193.05 858.076 1202.31 865.822 1212.95 871.196C1223.59 876.571 1235.33 879.43 1247.25 879.554C1280.06 879.554 1308.27 858.115 1320.81 827.367C1336.04 880.808 1381.68 919.611 1435.65 919.611C1482.67 919.611 1523.6 889.96 1543.29 846.832C1547.81 854.886 1554.37 861.614 1562.3 866.343C1570.24 871.073 1579.28 873.64 1588.52 873.787C1596.31 873.709 1603.98 871.874 1610.97 868.417C1617.95 864.959 1624.07 859.97 1628.85 853.821C1653.93 908.265 1705.62 945.658 1765.29 945.658C1849.61 945.658 1918 870.997 1918 778.941V430.807H4V801.571C4 850.154 40.0765 889.522 84.5531 889.522Z" fill="#2F3E46"/>
</mask>
<g mask="url(#mask0_117_362)">
<g style="mix-blend-mode:multiply" opacity="0.45">
<path d="M1033.41 1206.35L1033.05 1204.96L1033.31 1203.91C1043.61 1160.44 1052.21 1116.02 1059.06 1072.01C1053.55 1050.59 1048.35 1029.13 1043.45 1007.63C1038.59 986.106 1034.03 964.784 1029.75 942.999V942.51V942.175C1031.43 931.282 1032.95 920.209 1034.39 909.136C1035.83 898.063 1037.14 887.042 1038.38 875.995C1040.82 853.918 1042.85 831.892 1044.48 809.918C1042.96 853.866 1040.19 897.952 1036.19 942.175C1047.18 984.921 1059.84 1027.58 1074.17 1070.16L1074.38 1070.85V1071.8C1070.78 1115.63 1065.93 1159.56 1059.86 1203.57C1074.51 1245.83 1090.76 1288.11 1108.78 1329.75L1109.4 1331.09L1109.12 1333C1103.97 1372.65 1097.89 1412.05 1090.78 1451.66L1063.1 1453.67C1058.49 1454.05 1053.88 1454.13 1049.27 1454.28L1035.45 1454.7C1041.68 1434.75 1047.57 1414.8 1053.11 1394.85C1058.67 1374.82 1063.9 1354.52 1068.77 1334.39C1062.26 1313.17 1056.06 1291.92 1050.17 1270.65C1044.25 1249.36 1038.69 1227.83 1033.41 1206.35Z" fill="url(#paint0_radial_117_362)"/>
<path d="M1162.16 1236.74L1161.78 1235.61V1234.71C1164.87 1197.37 1166.94 1160.2 1167.98 1123.2C1154.75 1088.6 1142.28 1053.85 1130.57 1018.96V1018.6V1018.3C1131.34 981.137 1131.14 944.287 1129.82 907.412C1132.65 944.133 1134.64 980.751 1135.87 1017.65C1149.55 1052.05 1164.33 1086.59 1179.96 1120.09L1180.19 1120.63V1121.43C1180.94 1139.81 1181.53 1158.38 1181.86 1176.74C1182.2 1195.1 1182.35 1213.51 1182.33 1231.93C1190.28 1248.82 1198.53 1265.76 1206.97 1282.42C1215.42 1299.08 1224.07 1315.59 1233.03 1332.1L1233.62 1333.15V1334.77C1233.8 1367.14 1233.47 1399.85 1232.44 1432.24C1218.95 1434.77 1205.43 1437.2 1191.88 1439.55C1196.47 1406.08 1200.24 1372.71 1203.21 1339.46C1188.76 1305.4 1175.07 1271.16 1162.16 1236.74Z" fill="url(#paint1_radial_117_362)"/>
<path d="M1236.79 1119.29L1235.99 1117.74V1116.41C1235.99 1089.16 1235.37 1062.1 1234.11 1035.21C1232.77 1008.1 1230.77 981.136 1228.14 954.278C1202.57 907.334 1178.98 859.926 1157.12 811.128L1156.89 810.588V810.176C1155.44 796.888 1153.83 783.669 1152.04 770.519C1150.27 757.283 1148.26 743.944 1146.12 730.76C1141.85 704.374 1136.94 678.219 1131.39 652.297C1144.09 703.798 1154.93 755.97 1163.76 808.708C1188.28 855.918 1215.35 902.269 1244.98 947.763L1245.44 948.484L1245.65 949.617C1255.02 1001.84 1262.48 1054.71 1268.03 1108.22C1283.08 1130.72 1298.77 1153.04 1315.1 1175.17C1323.27 1186.19 1331.59 1197.15 1340.05 1208.05C1348.52 1218.95 1357.1 1229.63 1365.8 1240.09L1366.99 1241.48L1367.22 1243.82C1373.12 1293.31 1377.11 1342.58 1379.53 1392.51L1361.97 1398.4C1356.09 1400.31 1350.3 1402.42 1344.35 1404.04C1332.51 1407.48 1320.64 1410.87 1308.74 1414.22C1311.31 1388.16 1313.33 1362.22 1314.79 1336.42C1315.51 1323.53 1316.1 1310.65 1316.54 1297.8C1316.95 1284.92 1317.19 1271.86 1317.31 1258.96C1288.68 1213.51 1261.69 1166.47 1236.79 1119.29Z" fill="url(#paint2_radial_117_362)"/>
<path d="M1515.57 1133.84L1514.88 1133.07L1514.64 1132.29C1504.68 1101.39 1493.89 1070.23 1482.61 1039.75C1461.19 1015.52 1440.22 991.007 1419.7 966.2L1419.47 965.943V965.686C1407.93 935.093 1395.8 904.888 1383.06 875.068C1396.95 904.252 1410.38 933.72 1423.36 963.471C1445.25 987.351 1467.75 1010.82 1490.88 1033.87L1491.24 1034.23L1491.52 1034.88C1504.57 1064.34 1517.16 1094.08 1529.3 1124.11C1552.44 1146.97 1576.17 1169.44 1600.5 1191.5L1601.3 1192.19L1601.81 1193.5C1612.32 1219.08 1622.47 1244.83 1632.27 1270.76L1618.63 1279.43L1611.78 1283.76C1609.48 1285.18 1607.14 1286.49 1604.82 1287.86C1597.33 1260.38 1589.06 1232.7 1580.46 1205.45C1558.32 1181.94 1536.84 1158.3 1515.57 1133.84Z" fill="url(#paint3_radial_117_362)"/>
<path d="M1556.31 1006.6L1555.18 1005.6L1554.74 1004.54C1537.1 960.767 1518.1 918.046 1497.42 876.355C1462.06 846.458 1427.55 815.377 1394.41 783.652L1394.05 783.266L1393.87 782.957C1372.78 741.395 1350.48 701.352 1326.12 661.747C1339 680.906 1351.51 700.373 1363.67 719.944C1375.82 739.515 1387.69 759.189 1399.31 779.171C1416.92 794.21 1435.05 809.094 1453.38 823.437C1471.72 837.78 1490.18 851.763 1509.11 865.437L1509.75 865.849L1510.24 866.724C1522.03 886.518 1533.57 906.561 1544.85 926.853C1550.48 936.999 1556.04 947.187 1561.54 957.419C1567.03 967.651 1572.4 977.883 1577.66 988.114C1596.92 1001.87 1616.28 1014.97 1635.96 1027.85C1655.63 1040.72 1675.74 1053.26 1696.16 1065.52L1697.5 1066.29L1698.43 1068.1C1718 1105.2 1736.71 1142.99 1754.57 1181.48C1750.83 1184.75 1746.84 1187.84 1743.08 1190.9L1731.42 1200.15L1707.98 1218.46C1694.69 1176.17 1680.1 1134.78 1664.21 1094.29C1627.21 1065.99 1591.24 1036.77 1556.31 1006.6Z" fill="url(#paint4_radial_117_362)"/>
<path d="M1733.27 1002.38L1732.55 1001.87L1732.19 1001.3C1716.94 978.776 1701.41 956.527 1685.58 934.553C1663.74 918.69 1642.12 902.613 1620.71 886.321L1620.35 885.986C1604.39 863.961 1588.08 842.244 1571.42 820.837C1588.73 841.557 1605.83 862.51 1622.72 883.694C1644.92 899.145 1667.39 914.261 1690.14 929.042L1690.47 929.274L1690.86 929.711C1707.68 950.69 1724.27 971.883 1740.63 993.291C1763.35 1007.95 1786.33 1022.31 1809.6 1036.37L1810.37 1036.81L1811.06 1037.76C1824.61 1055.32 1838.01 1073.05 1851.26 1090.94L1836.12 1106.7C1823.81 1087.33 1811.29 1068.16 1798.57 1049.17C1776.65 1033.81 1754.88 1018.21 1733.27 1002.38Z" fill="url(#paint5_radial_117_362)"/>
<path d="M1744.34 865.128L1743.16 864.51L1742.57 863.712C1730.14 846.974 1717.48 830.502 1704.58 814.296C1691.71 798.073 1678.83 782.21 1665.18 766.348C1656.02 761.79 1646.93 757.206 1637.81 752.519C1628.7 747.833 1619.55 743.043 1610.46 738.228C1592.33 728.597 1574.36 718.76 1556.54 708.717L1556.15 708.485L1555.92 708.254C1542.48 692.649 1528.82 677.31 1514.93 662.237C1501.05 647.198 1486.6 632.185 1472.28 617.585C1487.24 631.559 1502.04 645.765 1516.7 660.202C1531.31 674.571 1545.62 689.043 1559.86 703.799C1597.05 722.108 1634.54 738.82 1672.78 754.58L1673.4 754.863L1674.02 755.455C1702.65 784.605 1730.87 814.682 1758.15 845.429C1796.77 860.879 1835.68 875.12 1875.6 888.304L1876.88 888.768L1878.09 890.055C1902.66 917.197 1926.69 944.982 1950.2 973.411C1945.48 980.132 1940.44 986.595 1935.36 993.059L1920.17 1012.4C1899.35 980.209 1877.78 948.87 1855.48 918.381C1817.87 901.506 1780.82 883.755 1744.34 865.128Z" fill="url(#paint6_radial_117_362)"/>
<path d="M1753.02 747.369L1751.5 746.751L1750.6 745.85C1715.89 707.223 1678.73 670.065 1640.88 635.121C1592.36 618.022 1544.93 599.43 1498.16 579.087L1497.7 578.855L1497.37 578.597C1459.02 544.143 1419.13 511.645 1378.37 481.388C1420.17 510.229 1461.13 540.701 1501.23 572.803C1525.26 581.645 1549.57 589.962 1574.15 597.756C1598.75 605.481 1623.78 612.898 1648.63 619.438L1649.4 619.67L1650.27 620.314C1660.37 628.194 1670.46 636.202 1680.43 644.262C1690.39 652.322 1700.15 660.434 1709.94 668.674C1729.51 685.155 1748.86 702.021 1767.98 719.275C1793.22 725.712 1818.74 731.618 1844.54 736.991C1870.29 742.347 1896.04 746.957 1922.05 751.129L1923.72 751.438L1925.45 752.88C1943.22 768.502 1960.8 784.459 1978.19 800.751C1995.67 817.077 2012.49 833.48 2029.38 850.347L2011.97 880.527C2010.5 883.102 2009.09 885.677 2007.54 888.02L2002.91 895.385L1993.56 910.063C1978.62 890.132 1963.4 870.63 1947.88 851.557C1932.17 832.398 1916.08 813.575 1899.78 795.214C1874.95 788.055 1850.35 780.502 1825.97 772.553C1801.59 764.725 1777.1 756.176 1753.02 747.369Z" fill="url(#paint7_radial_117_362)"/>
<path d="M1892.13 671.867L1890.97 671.635L1890.27 671.043C1861.2 648.073 1831.95 626.108 1801.59 604.786C1783.77 600.769 1766.1 596.623 1748.36 592.22C1730.62 587.816 1712.87 583.233 1695.24 578.469H1694.87L1694.62 578.314C1679.53 567.808 1664.46 557.713 1649.06 547.413C1633.67 537.113 1618.16 527.482 1602.51 517.851C1618.45 526.795 1634.32 535.902 1650.09 545.173L1673.73 559.233L1697.09 573.473C1715.12 577.361 1733.14 580.863 1751.17 584.185C1769.19 587.507 1787.22 590.546 1805.55 593.378H1806.14L1806.81 593.842C1837.97 612.726 1868.87 632.357 1899.52 652.734C1935.91 658.108 1972.66 662.528 2009.76 665.996L2010.94 666.151L2012.28 666.975C2039.03 684.571 2065.54 702.683 2091.83 721.309C2086.98 733.953 2081.29 746.184 2075.78 758.545C2050.75 736.502 2025.52 715.258 1999.66 694.605C1963.53 687.833 1927.61 680.159 1892.13 671.867Z" fill="url(#paint8_radial_117_362)"/>
<path d="M1916.2 560.341H1914.94L1914.09 559.8C1880.02 538.478 1845.53 518.341 1810.63 499.388C1771.31 495.526 1732.25 490.77 1693.43 485.122H1693.02L1692.74 484.993C1657.61 466.23 1622.15 448.685 1586.33 432.359C1622.64 447.191 1658.7 462.933 1694.49 479.586C1733.84 483.019 1773.54 485.285 1813.59 486.384H1814.23L1815.03 486.719C1850.69 502.976 1886.09 520.143 1921.25 538.221C1941.18 538.615 1961.21 538.701 1981.33 538.478C2001.44 538.246 2021.65 537.757 2041.61 536.856H2042.92L2044.47 537.628C2075.96 553.414 2106.63 569.74 2137.38 586.838L2131.04 609.087L2127.85 620.186L2126.23 625.748L2124.4 631.233C2109.72 620.649 2094.58 610.194 2079.49 599.997C2064.4 589.8 2049.16 579.834 2033.86 570.126C1994.44 567.654 1955.23 564.392 1916.2 560.341Z" fill="url(#paint9_radial_117_362)"/>
<path d="M1972.19 443.585H1971.05L1970.31 443.199C1954.19 436.092 1938.03 429.225 1921.84 422.598L1897.54 412.787C1889.35 409.577 1881.14 406.401 1872.92 403.259C1838.31 404.006 1803.24 403.98 1768.52 403.259H1768.14H1767.88C1751.5 397.13 1735.1 391.208 1718.67 385.491C1702.11 379.774 1685.45 374.238 1668.82 368.959C1702.29 378.126 1736 387.963 1769.01 398.392C1777.77 398.118 1786.54 397.766 1795.33 397.336C1804.06 396.899 1812.74 396.409 1821.47 395.894C1838.87 394.813 1856.33 393.517 1873.82 392.006H1874.36L1875.11 392.212C1908.29 402.512 1941.38 413.379 1974.38 424.813C2009.24 421.62 2044.16 417.542 2079.13 412.581L2080.32 412.375L2081.73 412.916C2110.32 422.701 2138.82 433.002 2167.25 443.817L2166.01 453.01L2164.47 462.152L2161.28 480.461C2133.21 466.418 2104.99 453.053 2076.63 440.366C2041.71 442.066 2006.9 443.139 1972.19 443.585Z" fill="url(#paint10_radial_117_362)"/>
<path d="M33.3734 427.157L34.5063 426.77H35.4078C72.7982 430.307 110.025 432.796 147.09 434.238C181.785 421.414 216.608 409.397 251.561 398.187H251.922H252.231C289.432 399.371 326.453 399.535 363.294 398.676C326.642 401.08 289.827 402.676 252.849 403.466C218.342 416.753 184.008 431.054 149.845 446.367L149.304 446.599H148.506C111.854 447.663 75.0641 447.938 38.1373 447.423C21.1588 455.199 4.24919 463.217 -12.5919 471.474C-29.4073 479.714 -46.3256 488.264 -62.8062 496.993L-63.8621 497.585H-65.4844C-81.7933 497.585 -97.9907 497.345 -114.076 496.864C-130.162 496.384 -146.351 495.843 -162.643 495.242C-165.115 481.731 -167.501 468.195 -169.801 454.633C-136.325 459.594 -102.935 463.749 -69.6303 467.096C-35.3816 452.951 -1.04698 439.637 33.3734 427.157Z" fill="url(#paint11_radial_117_362)"/>
<path d="M150.128 503.121L151.673 502.349H152.987C180.3 502.675 207.45 502.349 234.437 501.37C247.93 500.89 261.364 500.237 274.737 499.413C288.11 498.589 301.604 497.576 315.217 496.375C362.136 471.473 410.496 448.195 459.423 427.002L459.938 426.77H460.375C487.019 424.16 513.457 420.907 539.688 417.01C566.212 413.01 592.495 408.384 618.538 403.13C567.036 415.259 514.247 425.585 461.869 433.645C449.852 439.671 437.929 445.851 426.101 452.186C414.359 458.495 402.719 465.061 391.08 471.576C367.835 484.812 344.788 498.692 321.939 513.216L321.192 513.705L320.059 513.885C267.664 522.658 214.617 529.525 160.918 534.486C115.699 564.048 71.3993 596.117 28.0176 630.691L26.6269 631.85L24.2577 632.056C-24.8751 637.206 -74.437 640.717 -124.428 642.588L-130.248 625L-135.398 607.232C-138.832 595.353 -142.179 583.464 -145.441 571.567C-93.2521 577.318 -41.5529 580.752 9.65713 581.868C55.82 553.748 102.644 527.499 150.128 503.121Z" fill="url(#paint12_radial_117_362)"/>
<path d="M46.3779 693.499L47.0986 693.009H47.7166C73.3131 687.052 98.7722 680.778 124.094 674.186C146.24 660.28 168.489 646.615 190.84 633.19L191.072 633.036H191.304C216.729 626.34 241.99 619.302 267.089 611.92C242.299 620.177 217.407 628.194 192.411 635.971C170.54 650.392 148.841 665.147 127.313 680.237L126.952 680.494L126.437 680.649C101.614 688.46 76.7209 695.997 51.7597 703.258C30.3864 718.383 9.15915 733.833 -11.9223 749.61L-12.566 750.176L-13.6992 750.46C-34.1112 756.485 -54.6089 762.348 -75.1925 768.048L-83.5615 749.533C-61.9994 745.155 -40.5403 740.537 -19.1842 735.679C2.51524 721.31 24.3694 707.25 46.3779 693.499Z" fill="url(#paint13_radial_117_362)"/>
<path d="M132.515 781.618L133.287 780.949L134.06 780.717C165.27 771.086 195.862 760.94 226.763 749.816C238.995 739.232 251.252 728.829 263.664 718.451C276.076 708.074 288.643 697.851 301.235 687.55L301.492 687.344H301.75C317.046 681.782 332.136 676.168 347.329 670.246C362.522 664.323 377.638 658.271 392.651 652.04C363.32 665.61 333.423 678.846 303.758 691.336C279.475 713.069 255.99 735.112 232.634 758.005L232.274 758.365L231.63 758.649C201.965 771.387 172.034 783.661 141.836 795.472C118.798 818.322 96.1284 841.755 73.8281 865.772L73.1073 866.571L71.794 867.086C46.0431 877.283 20.1031 887.163 -6.02552 896.725C-11.9225 887.686 -17.2528 878.287 -22.6605 868.94C5.09898 861.678 32.4722 853.978 59.7424 845.764C83.6651 824.004 108.051 802.554 132.515 781.618Z" fill="url(#paint14_radial_117_362)"/>
<path d="M259.08 823.978L260.085 822.845L261.14 822.433C305.174 805.334 348.307 786.588 390.152 766.476C420.539 731.386 451.791 697.404 483.911 664.528L484.298 664.193L484.607 664.013C526.478 643.412 567.13 621.31 606.563 597.705C568.005 622.752 528.624 646.657 488.418 669.421C473.19 686.846 458.246 704.657 443.586 722.854C436.298 731.944 428.985 741.163 421.877 750.356C414.77 759.549 407.792 768.845 400.865 778.193L400.427 778.837L399.551 779.3C379.62 790.862 359.225 802.347 339.011 813.214C318.796 824.081 298.222 834.845 277.518 845.223C263.69 864.201 250.093 883.591 236.909 903.239C223.724 922.887 211.158 942.664 198.694 962.878L197.896 964.218L196.093 965.119C177.398 974.75 158.514 984.192 139.441 993.445C129.913 998.063 120.343 1002.6 110.729 1007.07C101.124 1011.55 91.5703 1015.9 81.9395 1020.23L63.5017 996.87C57.4245 989.144 51.2185 981.419 45.4761 973.153C56.0082 970.011 66.4633 966.818 76.9439 963.471C87.4246 960.123 97.9308 956.621 108.334 953.17C129.158 946.097 149.759 938.69 170.136 930.947C198.943 894.175 228.591 858.519 259.08 823.978Z" fill="url(#paint15_radial_117_362)"/>
<path d="M261.372 1000.89L261.913 1000.17L262.453 999.831C273.784 992.363 284.986 984.896 296.187 977.248C307.389 969.6 318.565 961.797 329.664 954.072C345.784 932.415 361.955 911.119 378.59 889.695L378.951 889.334C400.993 873.729 423.062 857.557 444.667 841.257C423.706 858.424 402.53 875.308 381.14 891.909C365.517 913.883 350.178 936.141 335.123 958.681L334.865 959.042L334.427 959.402C313.226 975.986 291.818 992.363 270.204 1008.54C255.32 1031.04 240.728 1053.82 226.428 1076.88L226.016 1077.65L225.037 1078.32C207.287 1091.68 189.389 1104.9 171.347 1118L163.621 1110.41C161.046 1107.83 158.471 1105.26 155.896 1102.55C175.338 1090.55 194.523 1078.4 213.733 1065.81C229.286 1044.12 245.226 1022.39 261.372 1000.89Z" fill="url(#paint16_radial_117_362)"/>
<path d="M398.419 1013.63L399.037 1012.48L399.835 1011.86C433.672 987.291 466.444 961.849 498.152 935.531C517.036 898.913 536.659 862.922 557.019 827.558L557.251 827.197L557.483 826.991C589.105 800.287 619.542 772.914 649.027 744.588C620.701 774.15 591.809 802.837 561.937 831.034C543.423 867.729 525.886 905.531 509.792 943.463L509.483 944.055L508.891 944.673C494.135 958.862 479.097 972.999 463.981 986.776C448.865 1000.55 433.595 1014.15 418.093 1027.59C410.11 1046.78 402.307 1066.22 394.917 1085.76C387.526 1105.31 380.548 1124.83 373.775 1144.65L373.286 1145.94L371.973 1147.13C344.548 1171.38 316.325 1195.33 287.742 1218.41C274.78 1208.36 261.905 1198.23 249.115 1187.99C281.596 1167.39 313.244 1146.12 344.059 1124.18C361.346 1086.69 379.466 1049.84 398.419 1013.63Z" fill="url(#paint17_radial_117_362)"/>
<path d="M516.151 1023.57L516.769 1022.03L517.696 1021.18C537.267 1003.84 556.349 986.192 574.941 968.235C593.559 950.209 611.868 931.514 629.533 912.716C638.322 888.681 647.507 864.828 657.086 841.154C666.64 817.566 676.837 793.849 687.266 770.571L687.524 770.107L687.781 769.772C696.451 760.347 705.034 750.837 713.532 741.24C721.953 731.687 730.399 721.773 738.614 711.961C755.094 692.219 771.034 672.202 786.433 651.91C757.077 693.447 725.996 734.313 693.498 773.892C675.249 821.72 659.138 870.647 645.163 920.673L644.906 921.445L644.262 922.321C612.4 962.046 578.924 1000.9 543.834 1038.87C537.173 1063.99 531.01 1089.38 525.345 1115.04C519.705 1140.79 514.555 1166.72 510.203 1192.58L509.868 1194.22L508.4 1195.92C500.469 1204.75 492.461 1213.52 484.375 1222.24C476.289 1230.96 468.16 1239.55 459.989 1247.99C443.577 1265.06 426.847 1281.92 409.8 1298.59L394.736 1289.89C389.714 1286.95 384.667 1284.1 379.8 1280.93L350.496 1262.18C370.599 1247.42 390.341 1232.36 409.723 1217.01C419.354 1209.34 428.881 1201.62 438.306 1193.84C447.757 1185.98 457.207 1177.9 466.478 1169.84C470.186 1157.5 473.997 1145.2 477.911 1132.96C481.851 1120.68 485.92 1108.37 490.091 1096.17C498.366 1071.74 507.053 1047.54 516.151 1023.57Z" fill="url(#paint18_radial_117_362)"/>
<path d="M589.98 1163.45L590.238 1162.29L590.83 1161.6C614.16 1132.77 636.581 1103.51 658.091 1073.81C666.675 1038.09 675.876 1002.68 685.696 967.591V967.231L685.877 966.973C696.537 952.003 706.984 936.931 717.216 921.755C727.516 906.562 737.352 891.369 747.189 875.764C738.039 891.66 728.769 907.377 719.379 922.913C709.988 938.45 700.391 953.961 690.589 969.445C686.555 987.368 682.752 1005.39 679.181 1023.52C675.602 1041.55 672.383 1059.57 669.344 1077.78V1078.37L668.881 1079.04C659.233 1094.49 649.405 1109.94 639.396 1125.39C629.405 1140.69 619.285 1155.78 608.984 1170.87C603.01 1207.59 598.272 1244.03 594.383 1281.03L594.229 1282.22L593.379 1283.56C575.456 1310.16 557.019 1336.52 538.066 1362.61C525.706 1357.15 513.38 1351.61 501.088 1346C523.405 1321.21 545.027 1296.04 565.954 1270.5C573.285 1234.57 581.293 1198.89 589.98 1163.45Z" fill="url(#paint19_radial_117_362)"/>
<path d="M701.276 1188.77L701.43 1187.5L701.971 1186.68C723.55 1153.2 744.151 1118.77 763.541 1084.06C765.687 1064.44 768.056 1044.9 770.649 1025.45C773.224 1005.96 776.056 986.647 779.146 967.102V966.664V966.407C788.648 949.205 797.996 931.385 806.983 913.772C815.97 896.158 824.648 878.313 833.017 860.493C817.773 896.699 801.593 932.664 784.477 968.389C780.597 1007.62 777.902 1047.19 776.391 1087.1V1087.74L776.056 1088.54C759.387 1124.08 741.808 1159.35 723.318 1194.35C722.1 1234.16 722.1 1274.28 723.318 1314.69V1316L722.52 1317.52C706.469 1348.42 689.705 1379.19 672.228 1409.81L650.005 1403.43C642.615 1401.24 635.353 1398.64 628.04 1396.24C638.838 1381.56 649.396 1366.79 659.713 1351.92C670.014 1337.04 680.314 1321.8 690.151 1306.6C691.49 1286.93 693.07 1267.3 694.889 1247.71C696.709 1228.12 698.838 1208.47 701.276 1188.77Z" fill="url(#paint20_radial_117_362)"/>
<path d="M817.309 1246.27V1245.13L817.721 1244.39C832.296 1212.25 846.029 1179.95 858.922 1147.49C858.613 1112.55 858.982 1077.73 860.03 1043.02V1042.63V1042.37C872.733 1009.75 884.536 976.939 895.437 943.926C885.909 977.402 875.738 1010.41 864.896 1043.53C865.721 1078.42 867.472 1113.86 870.047 1148.59V1149.16L869.815 1149.88C859.205 1183.13 847.978 1215.83 836.107 1248.51C837.497 1266.04 839.094 1283.66 840.922 1301.22C842.751 1318.78 844.811 1336.14 847.103 1353.62L847.308 1354.78L846.742 1356.2C836.622 1384.68 825.987 1413.29 814.914 1441.41C802.708 1439.3 790.519 1437.14 778.348 1434.94C792.717 1406.94 806.451 1378.82 819.549 1350.56C818.107 1315.69 817.36 1280.93 817.309 1246.27Z" fill="url(#paint21_radial_117_362)"/>
<path d="M930.226 1222.68L929.994 1221.37L930.381 1220.41C937.247 1200.67 943.728 1180.89 949.823 1161.06C955.951 1141.26 961.745 1121.02 967.205 1101.01C964.389 1080.63 961.814 1060.26 959.479 1039.9C957.162 1019.48 955.153 998.879 953.376 978.407V977.969V977.66C963.986 937.926 973.282 897.24 981.162 856.811C974.93 897.369 967.616 938.158 959.325 978.433C965.222 1019.35 972.561 1059.91 981.213 1100.72V1101.37L981.084 1102.24C973.153 1142.52 964.183 1182.75 954.174 1222.94C963.17 1263.5 973.47 1304.09 985.075 1344.69L985.41 1346L985.024 1347.75C976.441 1383.44 966.999 1419.11 956.698 1454.75L944.363 1454.39C940.243 1454.39 936.149 1454.13 932.029 1453.79L907.359 1451.99C914.81 1434.28 921.969 1416.52 928.836 1398.71C935.737 1380.92 942.329 1363.18 948.664 1345.05C946.835 1334.9 945.059 1324.81 943.359 1314.61C941.66 1304.41 940.011 1294.16 938.441 1283.94C935.591 1263.5 932.853 1243.07 930.226 1222.68Z" fill="url(#paint22_radial_117_362)"/>
</g>
</g>
<defs>
<radialGradient id="paint0_radial_117_362" cx="0" cy="0" r="1" gradientUnits="userSpaceOnUse" gradientTransform="translate(998.004 272.676) scale(1097.61 1097.61)">
<stop stop-color="#068C72" stop-opacity="0.1"/>
<stop offset="0.22" stop-color="#068C72" stop-opacity="0.27"/>
<stop offset="0.69" stop-color="#068C72" stop-opacity="0.7"/>
<stop offset="1" stop-color="#068C72"/>
</radialGradient>
<radialGradient id="paint1_radial_117_362" cx="0" cy="0" r="1" gradientUnits="userSpaceOnUse" gradientTransform="translate(998.003 272.677) scale(1097.61 1097.61)">
<stop stop-color="#068C72" stop-opacity="0.1"/>
<stop offset="0.22" stop-color="#068C72" stop-opacity="0.27"/>
<stop offset="0.69" stop-color="#068C72" stop-opacity="0.7"/>
<stop offset="1" stop-color="#068C72"/>
</radialGradient>
<radialGradient id="paint2_radial_117_362" cx="0" cy="0" r="1" gradientUnits="userSpaceOnUse" gradientTransform="translate(998.003 272.677) scale(1097.61 1097.61)">
<stop stop-color="#068C72" stop-opacity="0.1"/>
<stop offset="0.22" stop-color="#068C72" stop-opacity="0.27"/>
<stop offset="0.69" stop-color="#068C72" stop-opacity="0.7"/>
<stop offset="1" stop-color="#068C72"/>
</radialGradient>
<radialGradient id="paint3_radial_117_362" cx="0" cy="0" r="1" gradientUnits="userSpaceOnUse" gradientTransform="translate(998.003 272.677) scale(1097.61 1097.61)">
<stop stop-color="#068C72" stop-opacity="0.1"/>
<stop offset="0.22" stop-color="#068C72" stop-opacity="0.27"/>
<stop offset="0.69" stop-color="#068C72" stop-opacity="0.7"/>
<stop offset="1" stop-color="#068C72"/>
</radialGradient>
<radialGradient id="paint4_radial_117_362" cx="0" cy="0" r="1" gradientUnits="userSpaceOnUse" gradientTransform="translate(998.003 272.676) scale(1097.58 1097.58)">
<stop stop-color="#068C72" stop-opacity="0.1"/>
<stop offset="0.22" stop-color="#068C72" stop-opacity="0.27"/>
<stop offset="0.69" stop-color="#068C72" stop-opacity="0.7"/>
<stop offset="1" stop-color="#068C72"/>
</radialGradient>
<radialGradient id="paint5_radial_117_362" cx="0" cy="0" r="1" gradientUnits="userSpaceOnUse" gradientTransform="translate(998.004 272.677) scale(1097.61 1097.61)">
<stop stop-color="#068C72" stop-opacity="0.1"/>
<stop offset="0.22" stop-color="#068C72" stop-opacity="0.27"/>
<stop offset="0.69" stop-color="#068C72" stop-opacity="0.7"/>
<stop offset="1" stop-color="#068C72"/>
</radialGradient>
<radialGradient id="paint6_radial_117_362" cx="0" cy="0" r="1" gradientUnits="userSpaceOnUse" gradientTransform="translate(998.004 272.677) scale(1097.61 1097.61)">
<stop stop-color="#068C72" stop-opacity="0.1"/>
<stop offset="0.22" stop-color="#068C72" stop-opacity="0.27"/>
<stop offset="0.69" stop-color="#068C72" stop-opacity="0.7"/>
<stop offset="1" stop-color="#068C72"/>
</radialGradient>
<radialGradient id="paint7_radial_117_362" cx="0" cy="0" r="1" gradientUnits="userSpaceOnUse" gradientTransform="translate(998.004 272.676) scale(1097.58 1097.58)">
<stop stop-color="#068C72" stop-opacity="0.1"/>
<stop offset="0.22" stop-color="#068C72" stop-opacity="0.27"/>
<stop offset="0.69" stop-color="#068C72" stop-opacity="0.7"/>
<stop offset="1" stop-color="#068C72"/>
</radialGradient>
<radialGradient id="paint8_radial_117_362" cx="0" cy="0" r="1" gradientUnits="userSpaceOnUse" gradientTransform="translate(998.003 272.676) scale(1097.61 1097.61)">
<stop stop-color="#068C72" stop-opacity="0.1"/>
<stop offset="0.22" stop-color="#068C72" stop-opacity="0.27"/>
<stop offset="0.69" stop-color="#068C72" stop-opacity="0.7"/>
<stop offset="1" stop-color="#068C72"/>
</radialGradient>
<radialGradient id="paint9_radial_117_362" cx="0" cy="0" r="1" gradientUnits="userSpaceOnUse" gradientTransform="translate(998.003 272.677) scale(1097.58 1097.58)">
<stop stop-color="#068C72" stop-opacity="0.1"/>
<stop offset="0.22" stop-color="#068C72" stop-opacity="0.27"/>
<stop offset="0.69" stop-color="#068C72" stop-opacity="0.7"/>
<stop offset="1" stop-color="#068C72"/>
</radialGradient>
<radialGradient id="paint10_radial_117_362" cx="0" cy="0" r="1" gradientUnits="userSpaceOnUse" gradientTransform="translate(998.004 272.676) scale(1097.61 1097.61)">
<stop stop-color="#068C72" stop-opacity="0.1"/>
<stop offset="0.22" stop-color="#068C72" stop-opacity="0.27"/>
<stop offset="0.69" stop-color="#068C72" stop-opacity="0.7"/>
<stop offset="1" stop-color="#068C72"/>
</radialGradient>
<radialGradient id="paint11_radial_117_362" cx="0" cy="0" r="1" gradientUnits="userSpaceOnUse" gradientTransform="translate(998.003 272.677) scale(1097.61 1097.61)">
<stop stop-color="#068C72" stop-opacity="0.1"/>
<stop offset="0.22" stop-color="#068C72" stop-opacity="0.27"/>
<stop offset="0.69" stop-color="#068C72" stop-opacity="0.7"/>
<stop offset="1" stop-color="#068C72"/>
</radialGradient>
<radialGradient id="paint12_radial_117_362" cx="0" cy="0" r="1" gradientUnits="userSpaceOnUse" gradientTransform="translate(998.003 272.676) scale(1097.61 1097.61)">
<stop stop-color="#068C72" stop-opacity="0.1"/>
<stop offset="0.22" stop-color="#068C72" stop-opacity="0.27"/>
<stop offset="0.69" stop-color="#068C72" stop-opacity="0.7"/>
<stop offset="1" stop-color="#068C72"/>
</radialGradient>
<radialGradient id="paint13_radial_117_362" cx="0" cy="0" r="1" gradientUnits="userSpaceOnUse" gradientTransform="translate(998.004 272.677) scale(1097.61 1097.61)">
<stop stop-color="#068C72" stop-opacity="0.1"/>
<stop offset="0.22" stop-color="#068C72" stop-opacity="0.27"/>
<stop offset="0.69" stop-color="#068C72" stop-opacity="0.7"/>
<stop offset="1" stop-color="#068C72"/>
</radialGradient>
<radialGradient id="paint14_radial_117_362" cx="0" cy="0" r="1" gradientUnits="userSpaceOnUse" gradientTransform="translate(998.003 272.677) scale(1097.61 1097.61)">
<stop stop-color="#068C72" stop-opacity="0.1"/>
<stop offset="0.22" stop-color="#068C72" stop-opacity="0.27"/>
<stop offset="0.69" stop-color="#068C72" stop-opacity="0.7"/>
<stop offset="1" stop-color="#068C72"/>
</radialGradient>
<radialGradient id="paint15_radial_117_362" cx="0" cy="0" r="1" gradientUnits="userSpaceOnUse" gradientTransform="translate(998.003 272.676) scale(1097.61 1097.61)">
<stop stop-color="#068C72" stop-opacity="0.1"/>
<stop offset="0.22" stop-color="#068C72" stop-opacity="0.27"/>
<stop offset="0.69" stop-color="#068C72" stop-opacity="0.7"/>
<stop offset="1" stop-color="#068C72"/>
</radialGradient>
<radialGradient id="paint16_radial_117_362" cx="0" cy="0" r="1" gradientUnits="userSpaceOnUse" gradientTransform="translate(998.003 272.677) scale(1097.61 1097.61)">
<stop stop-color="#068C72" stop-opacity="0.1"/>
<stop offset="0.22" stop-color="#068C72" stop-opacity="0.27"/>
<stop offset="0.69" stop-color="#068C72" stop-opacity="0.7"/>
<stop offset="1" stop-color="#068C72"/>
</radialGradient>
<radialGradient id="paint17_radial_117_362" cx="0" cy="0" r="1" gradientUnits="userSpaceOnUse" gradientTransform="translate(998.003 272.677) scale(1097.61 1097.61)">
<stop stop-color="#068C72" stop-opacity="0.1"/>
<stop offset="0.22" stop-color="#068C72" stop-opacity="0.27"/>
<stop offset="0.69" stop-color="#068C72" stop-opacity="0.7"/>
<stop offset="1" stop-color="#068C72"/>
</radialGradient>
<radialGradient id="paint18_radial_117_362" cx="0" cy="0" r="1" gradientUnits="userSpaceOnUse" gradientTransform="translate(998.002 272.676) scale(1097.61 1097.61)">
<stop stop-color="#068C72" stop-opacity="0.1"/>
<stop offset="0.22" stop-color="#068C72" stop-opacity="0.27"/>
<stop offset="0.69" stop-color="#068C72" stop-opacity="0.7"/>
<stop offset="1" stop-color="#068C72"/>
</radialGradient>
<radialGradient id="paint19_radial_117_362" cx="0" cy="0" r="1" gradientUnits="userSpaceOnUse" gradientTransform="translate(998.003 272.677) scale(1097.58 1097.58)">
<stop stop-color="#068C72" stop-opacity="0.1"/>
<stop offset="0.22" stop-color="#068C72" stop-opacity="0.27"/>
<stop offset="0.69" stop-color="#068C72" stop-opacity="0.7"/>
<stop offset="1" stop-color="#068C72"/>
</radialGradient>
<radialGradient id="paint20_radial_117_362" cx="0" cy="0" r="1" gradientUnits="userSpaceOnUse" gradientTransform="translate(998.003 272.677) scale(1097.61 1097.61)">
<stop stop-color="#068C72" stop-opacity="0.1"/>
<stop offset="0.22" stop-color="#068C72" stop-opacity="0.27"/>
<stop offset="0.69" stop-color="#068C72" stop-opacity="0.7"/>
<stop offset="1" stop-color="#068C72"/>
</radialGradient>
<radialGradient id="paint21_radial_117_362" cx="0" cy="0" r="1" gradientUnits="userSpaceOnUse" gradientTransform="translate(998.003 272.676) scale(1097.61 1097.61)">
<stop stop-color="#068C72" stop-opacity="0.1"/>
<stop offset="0.22" stop-color="#068C72" stop-opacity="0.27"/>
<stop offset="0.69" stop-color="#068C72" stop-opacity="0.7"/>
<stop offset="1" stop-color="#068C72"/>
</radialGradient>
<radialGradient id="paint22_radial_117_362" cx="0" cy="0" r="1" gradientUnits="userSpaceOnUse" gradientTransform="translate(998.002 272.677) scale(1097.61 1097.61)">
<stop stop-color="#068C72" stop-opacity="0.1"/>
<stop offset="0.22" stop-color="#068C72" stop-opacity="0.27"/>
<stop offset="0.69" stop-color="#068C72" stop-opacity="0.7"/>
<stop offset="1" stop-color="#068C72"/>
</radialGradient>
</defs>
</svg>
